<?xml version="1.0" encoding="UTF-8"?>
<svg id="Layer_2" data-name="Layer 2" xmlns="http://www.w3.org/2000/svg" viewBox="0 0 181.2 98.3">
  <defs>
    <style>
      .cls-1 {
        fill: #00abe6;
      }

      .cls-2 {
        fill: #231f20;
      }
    </style>
  </defs>
  <g id="Layer_1-2" data-name="Layer 1">
    <g>
      <g>
        <path class="cls-2" d="m25.6,79.1c-3,0-5.87-.63-8.6-1.9-2.73-1.27-4.9-3-6.5-5.2l.6-3.4v29.7H0v-63.4h9.5l1.7,9.7-1.2-2.9c2.2-2.27,4.77-4.15,7.7-5.65,2.93-1.5,6.27-2.25,10-2.25,4,0,7.58.93,10.75,2.8,3.17,1.87,5.65,4.5,7.45,7.9,1.8,3.4,2.7,7.47,2.7,12.2s-1,8.67-3,12c-2,3.33-4.73,5.9-8.2,7.7-3.47,1.8-7.4,2.7-11.8,2.7Zm-2.2-8.9c2.53,0,4.83-.57,6.9-1.7,2.07-1.13,3.72-2.72,4.95-4.75,1.23-2.03,1.85-4.32,1.85-6.85,0-2.67-.58-5.02-1.75-7.05-1.17-2.03-2.73-3.63-4.7-4.8-1.97-1.17-4.15-1.75-6.55-1.75-2.13,0-4.05.37-5.75,1.1-1.7.73-3.17,1.78-4.4,3.15-1.23,1.37-2.15,2.98-2.75,4.85v8.5c.4,1.8,1.17,3.4,2.3,4.8,1.13,1.4,2.57,2.5,4.3,3.3,1.73.8,3.6,1.2,5.6,1.2Z"/>
        <path class="cls-2" d="m60,20.4c0-1.67.67-3.07,2-4.2,1.33-1.13,2.8-1.7,4.4-1.7s3.05.57,4.35,1.7c1.3,1.13,1.95,2.57,1.95,4.3s-.65,3.07-1.95,4.2c-1.3,1.13-2.75,1.7-4.35,1.7s-3.07-.57-4.4-1.7c-1.33-1.13-2-2.57-2-4.3Zm.5,15.3h11.2v42.3h-11.2v-42.3Z"/>
        <path class="cls-2" d="m87.1,78V0h11.2v78h-11.2Zm7.7-12.7l-1.1-10.8,25.7-19.8,6.8,6-31.4,24.6Zm13.9-15.8l19.3,28.5h-13l-13.7-22,7.4-6.5Z"/>
        <path class="cls-2" d="m134,56.4c0-4.27,1.02-8.1,3.05-11.5,2.03-3.4,4.85-6.1,8.45-8.1,3.6-2,7.73-3,12.4-3s8.75,1,12.25,3,6.21,4.7,8.15,8.1c1.93,3.4,2.9,7.2,2.9,11.4s-.97,8.22-2.9,11.65c-1.93,3.43-4.65,6.15-8.15,8.15s-7.68,3-12.55,3c-4.53,0-8.58-.92-12.15-2.75-3.57-1.83-6.37-4.45-8.4-7.85-2.03-3.4-3.05-7.43-3.05-12.1Zm11.3.1c0,2.53.53,4.8,1.6,6.8,1.07,2,2.52,3.6,4.35,4.8,1.83,1.2,3.92,1.8,6.25,1.8,2.47,0,4.62-.6,6.45-1.8,1.83-1.2,3.28-2.8,4.35-4.8,1.07-2,1.6-4.27,1.6-6.8s-.54-4.8-1.6-6.8c-1.07-2-2.52-3.6-4.35-4.8-1.83-1.2-3.95-1.8-6.35-1.8s-4.43.6-6.3,1.8c-1.87,1.2-3.33,2.82-4.4,4.85-1.07,2.03-1.6,4.28-1.6,6.75Z"/>
      </g>
      <circle class="cls-1" cx="66.94" cy="20.43" r="6.82"/>
    </g>
  </g>
</svg>