<?xml version="1.0" encoding="utf-8"?>
<!-- Generator: Adobe Illustrator 27.5.0, SVG Export Plug-In . SVG Version: 6.00 Build 0)  -->
<svg version="1.1" id="Layer_1" xmlns="http://www.w3.org/2000/svg" xmlns:xlink="http://www.w3.org/1999/xlink" x="0px" y="0px"
	 viewBox="0 0 1080 1080" style="enable-background:new 0 0 1080 1080;" xml:space="preserve">
<style type="text/css">
	.st0{fill:#282829;}
	.st1{fill:#8ED8F8;}
	.st2{fill:#FBFBF5;}
</style>
<g>
	<polygon class="st0" points="771.8,700.5 747.5,700.2 723.2,698.7 698.9,701.4 674.6,696.9 650.3,700.2 626,700.4 601.7,698.9 
		577.4,698.1 553.1,699.6 528.8,698.5 504.5,697.3 480.2,697 455.9,698.1 431.6,700.9 407.3,698.8 383,698.8 358.6,699.7 334.3,697 
		310,700 285.7,699 261.4,697.9 237.1,699.7 212.8,701.6 190.3,697.4 190.8,674.5 190.7,649.8 187.6,625.1 190.6,600.3 187.8,575.6 
		186.9,550.9 189.9,526.2 186.4,501.5 190.2,478.1 199.5,456.5 208.8,435.1 224,417.4 242.2,402.7 261.5,388.7 284.8,383.9 
		308.2,383 332.5,381.6 356.8,382.9 381.1,381.7 405.4,379.6 429.7,383.1 454,382.6 478.3,381 502.6,382.7 526.9,383.2 551.2,382.3 
		575.5,382.9 599.8,382.8 624.1,382 648.4,382.2 672.7,384.2 697,380.2 721.4,382.1 745.7,383.3 770,382.4 794.3,381.9 818.6,381 
		842.9,383 867.2,380.2 890.9,382.4 890.6,406.5 893.5,431.2 891.9,455.9 889.3,480.6 891.2,505.3 889.6,530 893.7,554.8 
		892.2,579.5 890.4,603.1 884.1,626 870.5,645.4 855.2,662.8 837,677.1 816.8,688.2 794.8,695.2 	"/>
</g>
<circle class="st1" cx="479.3" cy="438.6" r="23.8"/>
<g>
	<path class="st2" d="M374.9,616.9c-10.3,0-19.3-2.1-26.8-6.4c-7.6-4.2-13.5-10.2-17.8-17.8v76.5h-41.2V480.5h35.8v21.9
		c5-7.5,11.3-13.3,18.8-17.6c7.6-4.2,16.4-6.4,26.6-6.4c9.1,0,17.5,1.7,25.1,5.1c7.6,3.4,14.3,8.3,20,14.6
		c5.7,6.4,10.1,13.7,13.3,22c3.2,8.3,4.8,17.3,4.8,27c0,13.2-2.5,25.1-7.6,35.6c-5.1,10.5-12,18.8-20.9,24.9
		C396.1,613.8,386.1,616.9,374.9,616.9z M360.7,582.1c4.5,0,8.5-1,12.2-2.9c3.7-1.9,6.9-4.5,9.7-7.8c2.7-3.3,4.9-7,6.3-11.2
		c1.5-4.2,2.2-8.6,2.2-13.3c0-4.9-0.8-9.3-2.4-13.3c-1.6-4-3.9-7.6-6.8-10.7c-2.9-3.1-6.4-5.5-10.3-7.3c-4-1.8-8.2-2.6-12.9-2.6
		c-2.8,0-5.5,0.5-8.4,1.4c-2.8,0.9-5.5,2.1-8,3.6c-2.5,1.5-4.8,3.4-6.8,5.6c-2.1,2.2-3.8,4.8-5.2,7.6v27.7c1.9,4.2,4.4,8,7.5,11.6
		c3.1,3.6,6.6,6.4,10.6,8.5C352.3,581,356.4,582.1,360.7,582.1z"/>
	<path class="st2" d="M457.9,614.3V479h41.2v135.3H457.9z"/>
	<path class="st2" d="M622.4,614.3l-35.3-53.6L572.6,575v39.3h-41.2V426.1h41.2v109.5l45.9-55.1h43.6l-48.7,57.7l52.8,76.1H622.4z"
		/>
	<path class="st2" d="M739.7,616.9c-11.7,0-22-1.8-30.8-5.5c-8.9-3.7-16.4-8.7-22.7-15.3c-6.3-6.5-11-13.9-14.2-22.3
		c-3.2-8.3-4.8-17.1-4.8-26.2c0-9.3,1.6-18.1,4.9-26.5c3.3-8.3,7.9-15.7,14-22.1c6.1-6.4,13.7-11.5,22.7-15.1
		c9-3.6,19.3-5.5,30.8-5.5c11.5,0,21.7,1.8,30.7,5.5c8.9,3.7,16.5,8.7,22.7,15.1c6.2,6.4,10.9,13.8,14.2,22.1
		c3.3,8.3,4.9,17.1,4.9,26.5c0,9.2-1.6,17.9-4.8,26.2c-3.2,8.3-7.9,15.7-14.2,22.3c-6.3,6.5-13.9,11.6-22.8,15.3
		C761.4,615.1,751.2,616.9,739.7,616.9z M709.5,547.7c0,6.7,1.3,12.6,4,17.8c2.7,5.2,6.2,9.3,10.7,12.2c4.5,2.9,9.6,4.4,15.5,4.4
		c5.7,0,10.8-1.5,15.3-4.4c4.6-2.9,8.1-7,10.7-12.1c2.6-5.1,3.9-11.1,3.9-18c0-6.9-1.3-12.9-3.9-18c-2.6-5.1-6.1-9.2-10.7-12.2
		c-4.6-3-9.7-4.5-15.3-4.5s-10.7,1.5-15.2,4.4c-4.5,2.9-8.1,7-10.8,12.2C710.9,534.8,709.5,540.8,709.5,547.7z"/>
</g>
</svg>
