<?xml version="1.0" encoding="utf-8"?>
<!-- Generator: Adobe Illustrator 27.5.0, SVG Export Plug-In . SVG Version: 6.00 Build 0)  -->
<svg version="1.1" id="Layer_2_00000150809982505809084980000006056920360246978209_"
	 xmlns="http://www.w3.org/2000/svg" xmlns:xlink="http://www.w3.org/1999/xlink" x="0px" y="0px" viewBox="0 0 114.1 52"
	 style="enable-background:new 0 0 114.1 52;" xml:space="preserve">
<style type="text/css">
	.st0{fill:#231F20;}
	.st1{fill:#FBFBF5;}
	.st2{fill:#00C0F3;}
</style>
<g id="Layer_1-2">
	<path class="st0" d="M23.3,0h90.8v28.7c0,12.9-10.4,23.3-23.3,23.3H0V23.3C0,10.4,10.4,0,23.3,0z"/>
	<g>
		<g>
			<path class="st1" d="M26.5,38.2c-1.2,0-2.4-0.2-3.5-0.7s-2.1-1.1-2.9-1.9l0.2-1.9v13.6h-6.4V17h5.5l0.9,3.9l-0.5-1.4
				c1-0.9,2.2-1.6,3.5-2.2c1.3-0.6,2.8-0.9,4.5-0.9c1.9,0,3.5,0.4,5,1.3c1.5,0.9,2.6,2.1,3.5,3.8c0.8,1.6,1.3,3.6,1.3,5.9
				s-0.5,4.2-1.4,5.8c-1,1.6-2.3,2.8-3.9,3.6C30.6,37.8,28.7,38.2,26.5,38.2L26.5,38.2z M25.2,33.1c1,0,2-0.2,2.9-0.7
				c0.9-0.5,1.6-1.1,2.1-2c0.5-0.8,0.8-1.8,0.8-2.9c0-1.1-0.2-2.1-0.7-3c-0.5-0.8-1.1-1.5-1.9-2s-1.7-0.7-2.7-0.7
				c-0.9,0-1.6,0.1-2.3,0.4s-1.2,0.6-1.8,1c-0.5,0.5-0.9,1-1.3,1.7v4.9c0.2,0.6,0.6,1.2,1.1,1.7s1,0.9,1.7,1.1S24.5,33.1,25.2,33.1
				L25.2,33.1z"/>
			<path class="st1" d="M42.5,10.4c0-0.9,0.4-1.7,1.1-2.4c0.8-0.6,1.6-0.9,2.4-0.9s1.7,0.3,2.4,0.9c0.7,0.6,1.1,1.4,1.1,2.4
				s-0.4,1.7-1.1,2.3s-1.5,0.9-2.4,0.9s-1.7-0.3-2.4-0.9C42.9,12.1,42.5,11.3,42.5,10.4z M42.7,17.5h6.5v20.1h-6.5V17.5z"/>
			<path class="st1" d="M55.7,37.6L56,4.7h6.5l-0.2,32.9H55.7z M60.2,32l-0.6-6.1L71.8,17l3.9,3.5L60.2,32z M67.3,23.9l9.1,13.7
				h-7.5l-5.8-10L67.3,23.9L67.3,23.9z"/>
			<path class="st1" d="M78.8,27.3c0-2.1,0.5-3.9,1.4-5.5c1-1.6,2.3-2.9,4.1-3.9s3.8-1.4,6-1.4s4.3,0.5,6,1.4c1.7,0.9,3,2.2,3.9,3.9
				c0.9,1.6,1.4,3.5,1.4,5.5s-0.4,3.9-1.4,5.5s-2.2,2.9-3.9,3.9s-3.7,1.4-6.1,1.4c-2.2,0-4.2-0.4-5.9-1.3c-1.7-0.9-3.1-2.1-4.1-3.7
				C79.3,31.5,78.8,29.6,78.8,27.3z M85.3,27.3c0,1,0.2,2,0.6,2.8s1,1.5,1.8,2s1.6,0.7,2.5,0.7c1,0,1.9-0.2,2.6-0.7
				c0.7-0.5,1.3-1.2,1.7-2c0.4-0.8,0.6-1.8,0.6-2.8s-0.2-2-0.6-2.9s-1-1.5-1.7-2c-0.7-0.5-1.6-0.7-2.6-0.7c-0.9,0-1.8,0.2-2.5,0.7
				s-1.3,1.1-1.8,2S85.3,26.3,85.3,27.3z"/>
		</g>
		<ellipse transform="matrix(0.7069 -0.7074 0.7074 0.7069 6.1857 35.5851)" class="st2" cx="46" cy="10.3" rx="3.6" ry="3.6"/>
	</g>
</g>
</svg>
