<?xml version="1.0" encoding="UTF-8"?>
<svg id="Layer_2" data-name="Layer 2" xmlns="http://www.w3.org/2000/svg" viewBox="0 0 114.07 51.97">
  <defs>
    <style>
      .cls-1 {
        fill: #00c0f3;
      }

      .cls-2 {
        fill: #fbfbf5;
      }

      .cls-3 {
        fill: #333132;
      }
    </style>
  </defs>
  <g id="Layer_1-2" data-name="Layer 1">
    <path class="cls-3" d="m23.3,0h90.77v28.67c0,12.86-10.44,23.3-23.3,23.3H0v-28.67C0,10.44,10.44,0,23.3,0Z"/>
    <g>
      <g>
        <path class="cls-2" d="m26.54,38.16c-1.2,0-2.37-.22-3.52-.67s-2.11-1.08-2.88-1.91l.18-1.89v13.58h-6.4v-30.25h5.53l.92,3.91-.51-1.38c1.04-.89,2.21-1.63,3.5-2.21,1.29-.58,2.78-.87,4.47-.87,1.87,0,3.55.44,5.02,1.31,1.47.87,2.63,2.13,3.48,3.78.84,1.64,1.27,3.62,1.27,5.92s-.48,4.21-1.43,5.8c-.95,1.6-2.26,2.81-3.91,3.64-1.66.83-3.56,1.24-5.71,1.24Zm-1.29-5.07c1.04,0,2-.23,2.88-.69.87-.46,1.58-1.11,2.12-1.96.54-.84.81-1.8.81-2.88,0-1.13-.24-2.13-.71-2.97-.48-.84-1.12-1.5-1.93-1.98-.81-.48-1.71-.71-2.69-.71-.86,0-1.62.12-2.28.35-.66.23-1.24.57-1.75,1.01-.51.45-.94,1.01-1.31,1.68v4.93c.25.65.6,1.21,1.06,1.7.46.49,1.02.87,1.68,1.13.66.26,1.37.39,2.14.39Z"/>
        <path class="cls-2" d="m42.52,10.35c0-.95.38-1.73,1.13-2.35.75-.61,1.56-.92,2.42-.92s1.65.31,2.37.92c.72.61,1.08,1.4,1.08,2.35s-.36,1.73-1.08,2.33c-.72.6-1.51.9-2.37.9s-1.67-.3-2.42-.9c-.75-.6-1.13-1.37-1.13-2.33Zm.14,7.14h6.45v20.12h-6.45v-20.12Z"/>
        <path class="cls-2" d="m55.73,37.61l.23-32.92h6.45l-.23,32.92h-6.45Zm4.51-5.57l-.64-6.12,12.16-8.93,3.91,3.45-15.43,11.6Zm7.05-8.1l9.12,13.68h-7.51l-5.85-9.99,4.24-3.68Z"/>
        <path class="cls-2" d="m78.85,27.3c0-2.06.48-3.9,1.45-5.53.97-1.63,2.33-2.91,4.08-3.85,1.75-.94,3.76-1.4,6.03-1.4s4.3.47,5.99,1.4c1.69.94,2.99,2.22,3.89,3.85.91,1.63,1.36,3.47,1.36,5.53s-.45,3.91-1.36,5.55c-.91,1.64-2.2,2.94-3.89,3.89-1.69.95-3.72,1.43-6.08,1.43-2.21,0-4.18-.43-5.92-1.29-1.73-.86-3.09-2.1-4.08-3.73-.98-1.63-1.47-3.58-1.47-5.85Zm6.49.05c0,1.04.21,1.99.64,2.83.43.84,1.01,1.51,1.75,2,.74.49,1.57.74,2.49.74,1.01,0,1.89-.25,2.63-.74.74-.49,1.3-1.16,1.7-2,.4-.84.6-1.79.6-2.83s-.2-2.03-.6-2.86c-.4-.83-.97-1.49-1.7-1.98-.74-.49-1.61-.74-2.63-.74-.92,0-1.75.25-2.49.74-.74.49-1.32,1.15-1.75,1.98-.43.83-.64,1.78-.64,2.86Z"/>
      </g>
      <ellipse class="cls-1" cx="46.02" cy="10.33" rx="3.62" ry="3.63" transform="translate(6.19 35.58) rotate(-45.02)"/>
    </g>
  </g>
</svg>