<?xml version="1.0" encoding="UTF-8"?>
<svg id="Layer_1" data-name="Layer 1" xmlns="http://www.w3.org/2000/svg" viewBox="0 0 260 371.41">
  <defs>
    <style>
      .cls-1 {
        fill: #231f20;
      }
    </style>
  </defs>
  <path id="path2" class="cls-1" d="m174.21,201.12c-1.5,12.87-9.3,23.29-21.38,28.44-6.77,2.85-15.81,4.42-23.06,3.95-11.16-.46-21.62-3.23-31.38-8.14-3.38-1.86-8.58-5.34-12.55-8.6-.98-.93-1.14-1.4-.43-2.36.31-.56,1.01-1.6,2.44-3.69,2.18-3.08,2.41-3.49,2.64-3.88.7-1,1.76-1.09,2.87-.3q.15.15.24.23t.55.46c.41.32.71.46.78.64,10.46,8.19,22.64,12.84,34.93,13.3,17.06-.23,29.32-7.9,31.58-19.76,2.33-12.9-7.84-24.17-27.73-30.45-6.26-1.86-22.03-8.16-24.94-9.91-13.63-7.98-20.03-18.46-19.1-31.46,1.39-17.96,18.08-31.32,39.16-31.44,9.36,0,18.79,1.95,27.74,5.72,3.23,1.37,8.99,4.49,10.9,5.99,1.15.85,1.4,1.78.69,2.82-.24.64-.93,1.58-2.13,3.61h0c-1.75,2.66-1.81,2.78-2.13,3.36-.62.98-1.51,1.06-2.7.36-9.57-6.51-20.36-9.76-32.15-9.99-14.64.23-25.65,8.96-26.36,20.92-.15,10.74,7.88,18.57,25.25,24.46,35.34,11.38,48.82,24.69,46.25,45.7M130.64,15.74c22.96,0,41.72,21.78,42.65,49.1h-85.24c.82-27.31,19.63-49.1,42.59-49.1m119,54.27c0-2.85-2.21-5.17-5.02-5.17h-55.29C187.94,28.8,162.16,0,130.64,0s-57.25,28.8-58.63,64.83H16.68c-2.77.06-4.98,2.34-4.98,5.17v.4h-.06l7.86,173.8c0,.47.09.94.09,1.51,0,.11.01.14.01.35v.27l.06.09c1.18,12.12,9.94,21.78,21.9,22.25v.09h176.35v-.09c12.13-.3,22.07-10.13,23.02-22.38h0l.05-.23v-.35c0-.35.09-.58.09-.95l8.57-174.52h0v-.24"/>
  <path id="path7" class="cls-1" d="m230.68,327.74c1.52-4.82,5.84-7.9,10.92-7.9s9.65,3.32,11.17,7.9l.25.26h-22.38l.04-.26Zm27.17,6.86h.25c1.02-.02,1.9-1.02,1.9-2.03,0-.13,0-.25-.01-.26t0-.12c0-10.55-8.24-18.92-18.4-18.92s-18.28,8.37-18.28,18.92c0,.81,0,1.61.15,2.41h.01s.07.23.07.23c.5,3.71,2.06,7.13,4.6,9.93h0c2.79,3.13,6.6,5.33,10.92,6.09h.25c.25,0,.29,0,.51.05,5.59.7,10.62-.05,14.73-2.19,1.02-.54,2.03-1.17,2.79-1.68.26-.25.51-.48.76-.55,0-.21.13-.21.23-.21.85-1.02.99-1.34.33-2.29-.56-1.02-1.07-1.77-1.58-2.54-.26-.25-.3-.51-.51-.61q0-.14,0-.14h-.07c-.53-.77-.95-.77-1.45-.26-.03,0-.26.26-.26.26-4.06,3.55-9.65,4.76-15.13,3.55-1.04-.26-1.91-.57-2.9-1.02-3.36-1.78-5.84-4.83-6.6-8.38v-.25h27.68Zm-70.84-6.86c1.52-4.82,5.83-7.9,10.95-7.9s9.62,3.32,11.17,7.9l.22.26h-22.34v-.26Zm27.22,6.86h.2c1.02-.02,1.96-1.02,1.96-2.03,0-.13,0-.25-.01-.26t0-.12c0-10.55-8.3-18.92-18.43-18.92s-18.3,8.37-18.3,18.92c0,.81,0,1.61.21,2.41h.01s.04.23.04.23c.51,3.71,2.03,7.13,4.57,9.93h0c2.79,3.13,6.6,5.33,10.91,6.09h.26c.24,0,.34,0,.5.05,5.59.7,10.66-.05,14.73-2.19,1.02-.54,2.03-1.17,2.79-1.68.26-.25.51-.48.76-.55,0-.21.19-.21.25-.21.89-1.02,1.01-1.34.37-2.29-.62-1.02-1.13-1.77-1.63-2.54-.25-.25-.26-.51-.51-.61v-.14h-.01c-.53-.77-1-.77-1.51-.26l-.26.26c-4.06,3.55-9.65,4.76-15.07,3.55-1.04-.26-1.94-.57-2.95-1.02-3.31-1.78-5.85-4.83-6.6-8.38v-.25s27.72,0,27.72,0h0Zm-60.49,10.4c-6.85,0-12.44-5.33-12.63-12.19v-.63c.2-6.72,5.79-12.16,12.63-12.16s12.52,5.61,12.52,12.55c0,6.85-5.66,12.44-12.52,12.44m0-31.66c-4.55,0-8.79,1.52-12.2,4.32l-.44.41v-3.54c0-1.02-.14-1.19-1.13-1.19h-4.35c-.98,0-1.16.18-1.16,1.19v55.76c0,.87.18,1.12,1.16,1.12h4.35c.97,0,1.13-.25,1.13-1.12v-23.26l.44.26c3.4,2.79,7.65,4.31,12.2,4.31,10.66,0,19.29-8.54,19.29-19.04s-8.63-19.23-19.29-19.23m-45.25,31.18c-6.99,0-12.57-5.49-12.57-12.32s5.59-12.32,12.57-12.32,12.57,5.49,12.57,12.32c0,6.83-5.59,12.32-12.57,12.32m0-31.25c-10.67,0-19.3,8.37-19.3,18.95s8.63,18.88,19.3,18.88,19.3-8.38,19.3-18.88-8.64-18.95-19.3-18.95m-43.04.36c-3.83,0-7.62,1.22-10.76,3.57l-.38.32v-25.9c0-.95-.28-1.2-1.14-1.2h-4.61c-.89,0-1.14.25-1.14,1.2v58.97c0,1.01.25,1.27,1.14,1.27h4.61c.85,0,1.14-.3,1.14-1.27v-19.3c.1-6.05,5.05-10.91,11.14-10.91s11.17,4.92,11.17,11.02v19.19c0,1.01.18,1.27,1.14,1.27h4.57c1.01,0,1.14-.26,1.14-1.27v-19.3c0-9.65-8.13-17.66-18.03-17.66M1.45,341.12v.04c-.69.96-1,1.3-1.13,1.56-.51.76-.43,1.15.37,1.77,1.79,1.52,4.19,3.05,5.78,3.81,4.44,2.28,9.21,3.3,14.3,3.55,3.28.04,7.46-.76,10.51-2.03,5.58-2.54,9.13-7.37,9.74-13.27.99-9.66-5.29-15.67-21.45-20.52h-.01c-7.57-2.52-11.12-5.78-11.12-10.2.25-5.01,4.87-8.81,11.13-9.03,4.98.03,9.43,1.46,13.82,4.28.93.51,1.31.39,1.95-.47.09-.03.25-.29,1.13-1.56h0c.77-1.02,1.02-1.52,1.03-1.52.53-1.02.51-1.43-.48-2.03-.91-.76-3.51-2.03-4.98-2.66-4.19-1.65-8.5-2.41-12.74-2.41-9.73.25-17.34,6.6-17.85,14.89-.26,5.93,2.78,10.75,9.13,14.31,1.78,1.02,8.26,3.48,11.3,4.32,8.63,2.54,13.19,7.17,12.2,12.7-.79,5.07-6.05,8.37-13.36,8.61-5.32-.23-10.72-2.11-15.35-5.56-.02,0-.14-.22-.38-.26q-.29-.25-.38-.27c-.9-.75-1.51-.74-2.04.27-.12,0-.81,1.12-1.14,1.7"/>
</svg>